# xmcd
#
# Track frame offsets:
#  150
#  16425
#  36180
#  54280
#  69465
#  87132
#  100640
#  117620
#  129165
#  145487
#  169562
#  183260
#  199935
#
# Disc length: 2983 seconds
#
# Revision: 0
# Processed by: cddbd v1.5.1PL2 Copyright (c) Steve Scherf et al.
# Submitted via: Collectorz.com_Music_Collector 6.11
#
DISCID=ab0ba50d
DTITLE=Clapton, Eric - The Unsurpassed
DYEAR=1992
DGENRE=Blues
TTITLE0=Slunky
TTITLE1=Bad Boy
TTITLE2=Lonesome And A Long Way From Home
TTITLE3=After Midnight
TTITLE4=Blues Power
TTITLE5=Bottle Of Red Wine
TTITLE6=Lovin' You Lovin' Me
TTITLE7=Told You For The First Time
TTITLE8=Don't Know Why
TTITLE9=Let It Rain
TTITLE10=Easy Now
TTITLE11=Lonesome And A Long Way From Home (#2)
TTITLE12=Don't Know Why (#2)
EXTD=
EXTT0=
EXTT1=
EXTT2=
EXTT3=
EXTT4=
EXTT5=
EXTT6=
EXTT7=
EXTT8=
EXTT9=
EXTT10=
EXTT11=
EXTT12=
PLAYORDER=
